<svg width="519" height="72" viewBox="0 0 519 72" fill="none" xmlns="http://www.w3.org/2000/svg">
<path d="M37.6563 3.31269C41.6563 3.25019 44.9375 3.96894 47.5 5.46894C50.125 6.96894 52.25 8.75019 53.875 10.8127C55.5 12.8752 56.75 14.9689 57.625 17.0939C58.5 19.1564 59.1875 20.7814 59.6875 21.9689C59.8125 22.2814 60.0625 22.6877 60.4375 23.1877C60.75 23.6252 61.1875 24.1564 61.75 24.7814C62.375 25.3439 63.1563 26.0002 64.0938 26.7502C62.1563 26.8127 60.4375 26.8752 58.9375 26.9377C57.4375 26.9377 56.1563 26.9689 55.0938 27.0314C53.9063 27.0939 52.8438 27.1564 51.9063 27.2189C50.9688 27.2814 49.8125 27.3752 48.4375 27.5002C47.1875 27.6252 45.6563 27.7502 43.8438 27.8752C42.0313 28.0002 39.8125 28.1877 37.1875 28.4377C38.75 26.5627 39.9688 24.9064 40.8438 23.4689C41.7813 21.9689 42.4688 20.6564 42.9063 19.5314C43.4063 18.3439 43.6875 17.3127 43.75 16.4377C43.875 15.5627 43.8438 14.8127 43.6563 14.1877C43.2813 12.7502 42.3125 11.7189 40.75 11.0939C36.25 9.84394 32.3125 10.8439 28.9375 14.0939C25.625 17.2814 23.25 22.5314 21.8125 29.8439C21.125 33.4689 20.4687 37.2502 19.8437 41.1877C19.2812 45.0627 19.0625 48.6252 19.1875 51.8752C19.3125 55.0627 19.9375 57.6564 21.0625 59.6564C22.1875 61.6564 24.125 62.5939 26.875 62.4689C29.5625 62.3439 31.8438 61.9064 33.7188 61.1564C35.5938 60.3439 37.0938 59.4064 38.2188 58.3439C39.3438 57.2189 40.125 56.0314 40.5625 54.7814C41.0625 53.4689 41.25 52.2502 41.125 51.1252C40.875 50.2502 40.2188 49.3127 39.1563 48.3127C38.2188 47.4377 36.8125 46.4689 34.9375 45.4064C33.0625 44.2814 30.375 43.1252 26.875 41.9377C30.1875 41.7502 32.9063 41.6252 35.0313 41.5627C37.2188 41.4377 38.9375 41.3127 40.1875 41.1877C41.6875 41.0627 42.8438 40.9689 43.6563 40.9064C44.4063 40.8439 45.5 40.7814 46.9375 40.7189C48.1875 40.6564 49.7813 40.6252 51.7188 40.6252C53.7188 40.6252 56.2188 40.5939 59.2188 40.5314C58.0938 41.6564 57.2188 42.6877 56.5938 43.6252C56.2813 44.1252 56 44.5627 55.75 44.9377C55.5 45.5627 55.4063 46.8439 55.4688 48.7814C55.4688 50.4064 55.5938 52.8127 55.8438 56.0002C56.0938 59.1252 56.5625 63.4064 57.25 68.8439L44.7813 70.5314L45.3438 57.8752C43.9063 61.3127 42.0938 63.8752 39.9063 65.5627C37.7813 67.2502 35.75 68.4377 33.8125 69.1252C31.5 69.9377 29.0937 70.3127 26.5937 70.2502C23.3437 69.9377 20.0938 69.1877 16.8438 68.0002C13.5938 66.8127 10.7188 65.0002 8.21875 62.5627C5.71875 60.0627 3.78125 56.8439 2.40625 52.9064C1.09375 48.9689 0.6875 44.0939 1.1875 38.2814C1.75 32.4689 3.125 27.4064 5.3125 23.0939C7.5625 18.7189 10.3438 15.0939 13.6562 12.2189C16.9688 9.34394 20.6875 7.18769 24.8125 5.75019C29 4.25019 33.2813 3.43769 37.6563 3.31269Z" fill="#F7FAFF"/>
<path d="M59.3125 2.56269C61.3125 2.87519 63.125 3.15644 64.75 3.40644C66.375 3.59394 67.7812 3.75019 68.9687 3.87519C70.3437 4.06269 71.5625 4.21894 72.625 4.34394C73.9375 4.53144 75.9062 4.31269 78.5312 3.68769C81.1562 3.00019 84.0312 2.37519 87.1562 1.81269C90.3437 1.18769 93.5937 0.843941 96.9062 0.781441C100.219 0.656441 103.25 1.25019 106 2.56269C108.75 3.87519 111 5.18769 112.75 6.50019C114.5 7.81269 115.875 9.21894 116.875 10.7189C117.937 12.1564 118.687 13.6877 119.125 15.3127C119.562 16.9377 119.812 18.7189 119.875 20.6564C119.812 23.5314 119.125 26.3127 117.812 29.0002C117.25 30.1252 116.5 31.3127 115.562 32.5627C114.687 33.7502 113.594 34.9064 112.281 36.0314C110.969 37.1564 109.406 38.2189 107.594 39.2189C105.844 40.2189 103.781 41.0939 101.406 41.8439C103.719 42.5314 105.625 43.3439 107.125 44.2814C108.687 45.2189 109.937 46.0939 110.875 46.9064C112 47.9064 112.844 48.8752 113.406 49.8127C114.094 51.1252 114.562 52.2502 114.812 53.1877C115.062 54.1252 115.219 55.0314 115.281 55.9064C115.406 56.7189 115.562 57.5627 115.75 58.4377C115.937 59.3127 116.344 60.3127 116.969 61.4377C117.469 62.3127 118.062 63.2189 118.75 64.1564C119.375 64.9689 120.094 65.8439 120.906 66.7814C121.781 67.7189 122.844 68.6252 124.094 69.5002C122.344 69.5627 120.719 69.5939 119.219 69.5939C117.781 69.5939 116.531 69.5939 115.469 69.5939C114.219 69.5939 113.031 69.5627 111.906 69.5002C110.781 69.4377 109.375 69.4064 107.687 69.4064C106.25 69.4064 104.406 69.4064 102.156 69.4064C99.9687 69.4064 97.3125 69.4377 94.1875 69.5002C95.5625 68.4377 96.6875 67.3752 97.5625 66.3127C98.4375 65.2502 99.125 64.2814 99.625 63.4064C100.187 62.4064 100.594 61.4377 100.844 60.5002C101.156 58.8127 101.187 57.0627 100.937 55.2502C100.75 53.6877 100.25 51.9689 99.4375 50.0939C98.625 48.1564 97.3125 46.2189 95.5 44.2814C93.6875 44.5939 92.1562 44.8439 90.9062 45.0314C89.7187 45.1564 88.6875 45.2814 87.8125 45.4064C86.8125 45.5314 86 45.6252 85.375 45.6877C84.8125 45.7502 84.1875 45.8127 83.5 45.8752C82.9375 45.9377 82.3125 46.0314 81.625 46.1564C81 46.2189 80.4062 46.3127 79.8437 46.4377C79.7187 49.1252 79.7187 51.4689 79.8437 53.4689C79.9687 55.4064 80.125 57.0314 80.3125 58.3439C80.5625 59.9064 80.8437 61.2502 81.1562 62.3752C81.4687 63.5002 81.9062 64.5939 82.4687 65.6564C82.9062 66.5314 83.4687 67.4689 84.1562 68.4689C84.8437 69.4064 85.625 70.1877 86.5 70.8127C84.875 70.8127 83.3125 70.8127 81.8125 70.8127C80.375 70.8127 79.0625 70.7814 77.875 70.7189C76.5 70.7189 75.1875 70.6877 73.9375 70.6252C72.6875 70.5627 71.2812 70.5314 69.7187 70.5314C68.4062 70.5314 66.8437 70.5314 65.0312 70.5314C63.2812 70.5314 61.375 70.5627 59.3125 70.6252C60.9375 68.9377 62.2188 67.5002 63.1563 66.3127C64.0938 65.1252 64.8125 64.1252 65.3125 63.3127C65.875 62.4377 66.2187 61.6877 66.3437 61.0627C66.4687 60.0627 66.5625 58.2814 66.625 55.7189C66.75 53.0939 66.8437 50.0939 66.9062 46.7189C66.9687 43.3439 67 39.8127 67 36.1252C67 32.4377 66.9687 29.0002 66.9062 25.8127C66.8437 22.5627 66.7812 19.7814 66.7187 17.4689C66.6562 15.1564 66.5937 13.6877 66.5312 13.0627C66.3437 11.9377 65.9375 10.8127 65.3125 9.68769C64.8125 8.68769 64.0938 7.56269 63.1563 6.31269C62.2188 5.06269 60.9375 3.81269 59.3125 2.56269ZM94.75 35.5627C95.375 35.1877 95.9062 34.8127 96.3437 34.4377C96.7812 34.0627 97.1562 33.4689 97.4687 32.6564C97.7812 31.7814 98.0312 30.5627 98.2187 29.0002C98.4687 27.4377 98.75 25.3127 99.0625 22.6252C99.3125 19.9377 99.125 17.7189 98.5 15.9689C97.9375 14.2189 97.1562 12.8439 96.1562 11.8439C95.2187 10.7814 94.1562 10.0627 92.9687 9.68769C91.8437 9.25019 90.8437 9.03144 89.9687 9.03144C88.2187 9.03144 86.5 9.56269 84.8125 10.6252C83.125 11.6877 81.8437 13.1252 80.9687 14.9377C80.6562 15.7502 80.375 17.0939 80.125 18.9689C79.9375 20.5939 79.8125 22.8439 79.75 25.7189C79.6875 28.5939 79.7812 32.3752 80.0312 37.0627C82.4062 37.4377 84.5 37.5939 86.3125 37.5314C88.125 37.4064 89.6562 37.1877 90.9062 36.8752C92.4062 36.5627 93.6875 36.1252 94.75 35.5627Z" fill="#F7FAFF"/>
<path d="M118.375 6.96894C122.75 7.09394 126.375 7.18769 129.25 7.25019C132.187 7.25019 134.562 7.25019 136.375 7.25019H169.281C169.406 8.50019 169.5 9.71894 169.562 10.9064C169.687 12.0314 169.75 13.0314 169.75 13.9064C169.75 14.9689 169.719 15.9377 169.656 16.8127C169.594 17.6877 169.5 18.6252 169.375 19.6252C169.25 20.5002 169.125 21.4377 169 22.4377C168.875 23.4377 168.656 24.4689 168.344 25.5314C167.469 22.1564 166.281 19.5939 164.781 17.8439C163.344 16.0939 161.875 14.8127 160.375 14.0002C158.625 13.0627 156.781 12.5627 154.844 12.5002C152.281 12.6252 150.281 12.8439 148.844 13.1564C147.406 13.4689 146.281 13.9064 145.469 14.4689C144.656 15.0314 144.031 15.6877 143.594 16.4377C143.219 17.1252 142.812 17.9064 142.375 18.7814C142 19.5314 141.656 20.6877 141.344 22.2502C141.031 23.5627 140.719 25.3439 140.406 27.5939C140.156 29.8439 139.875 32.7502 139.562 36.3127C141.25 35.8127 142.594 35.3439 143.594 34.9064C144.656 34.4689 145.5 34.0939 146.125 33.7814C146.812 33.4064 147.312 33.0627 147.625 32.7502C147.875 32.3752 148.25 31.6877 148.75 30.6877C149.125 29.8127 149.625 28.6252 150.25 27.1252C150.937 25.6252 151.75 23.5627 152.687 20.9377C152.812 23.8127 152.875 26.2189 152.875 28.1564C152.875 30.0314 152.906 31.5627 152.969 32.7502C152.969 34.1252 153 35.2189 153.062 36.0314V39.5939C153.062 40.9064 153.062 42.6877 153.062 44.9377C153.125 47.1252 153.219 49.9064 153.344 53.2814C152.594 50.9689 151.906 49.1564 151.281 47.8439C150.719 46.4689 150.219 45.4377 149.781 44.7502C149.281 43.9377 148.844 43.3752 148.469 43.0627C148.031 42.9377 147.437 42.8127 146.687 42.6877C146 42.6252 145.125 42.5939 144.062 42.5939C143.062 42.5939 141.781 42.7502 140.219 43.0627C140.031 46.5002 140 49.2814 140.125 51.4064C140.312 53.4689 140.562 55.0627 140.875 56.1877C141.187 57.5002 141.562 58.4377 142 59.0002C142.562 59.5627 143.687 60.0314 145.375 60.4064C147.062 60.7189 148.969 60.8439 151.094 60.7814C153.281 60.6564 155.5 60.2814 157.75 59.6564C160 59.0314 162 58.0002 163.75 56.5627C165.062 55.3752 166.469 53.8752 167.969 52.0627C169.219 50.5002 170.594 48.5314 172.094 46.1564C173.656 43.7814 175.187 40.9064 176.687 37.5314C176.437 40.3439 176.25 42.6877 176.125 44.5627C176.062 46.3752 175.969 47.8439 175.844 48.9689C175.719 50.2814 175.625 51.2814 175.562 51.9689C175.562 52.7189 175.469 53.7814 175.281 55.1564C175.156 56.3439 174.937 57.9689 174.625 60.0314C174.375 62.0314 174.031 64.5939 173.594 67.7189C170.656 67.7814 167.875 67.8439 165.25 67.9064C162.625 67.9064 160.312 67.9377 158.312 68.0002C155.937 68.0627 153.75 68.1252 151.75 68.1877C149.687 68.1877 147.406 68.2814 144.906 68.4689C142.719 68.5939 140.125 68.7814 137.125 69.0314C134.187 69.2814 130.937 69.6252 127.375 70.0627C127.687 65.8127 127.906 61.8127 128.031 58.0627C128.219 54.2502 128.344 50.9064 128.406 48.0314C128.469 44.6564 128.469 41.5314 128.406 38.6564C128.719 31.4689 128.594 25.6564 128.031 21.2189C127.469 16.7814 126.812 13.9377 126.062 12.6877C125.687 12.2502 125.156 11.7189 124.469 11.0939C123.906 10.5939 123.125 10.0002 122.125 9.31269C121.125 8.62519 119.875 7.84394 118.375 6.96894Z" fill="#F7FAFF"/>
<path d="M166.187 4.43769C168.875 4.68769 171.25 4.87519 173.312 5.00019C175.375 5.12519 177.094 5.25019 178.469 5.37519C180.094 5.50019 181.469 5.59394 182.594 5.65644C183.719 5.71894 185.094 5.75019 186.719 5.75019C188.094 5.81269 189.812 5.84394 191.875 5.84394C193.937 5.84394 196.375 5.84394 199.187 5.84394C197.375 6.71894 195.969 7.53144 194.969 8.28144C194.031 9.03144 193.312 9.68769 192.812 10.2502C192.187 10.9377 191.812 11.5627 191.687 12.1252C191.625 12.6252 191.75 13.4689 192.062 14.6564C192.375 15.8439 192.812 17.1877 193.375 18.6877C193.937 20.1252 194.625 21.6564 195.437 23.2814C196.25 24.9064 197.094 26.3752 197.969 27.6877C198.906 28.9377 199.844 29.9689 200.781 30.7814C201.719 31.5939 202.625 31.9689 203.5 31.9064C204.375 31.8439 205.437 31.4377 206.687 30.6877C207.937 29.8752 209.219 28.8752 210.531 27.6877C211.906 26.5002 213.25 25.2189 214.562 23.8439C215.875 22.4689 217.031 21.1252 218.031 19.8127C219.094 18.5002 219.937 17.3127 220.562 16.2502C221.25 15.1252 221.594 14.3127 221.594 13.8127C221.531 13.1877 221.281 12.4689 220.844 11.6564C220.469 10.9689 219.844 10.1564 218.969 9.21894C218.094 8.21894 216.875 7.09394 215.312 5.84394C220.437 6.03144 224.187 6.12519 226.562 6.12519H233.969C235.406 6.12519 237.312 6.12519 239.687 6.12519C242.062 6.06269 245.031 5.96894 248.594 5.84394C246.156 7.46894 244.031 8.93769 242.219 10.2502C240.469 11.5002 238.969 12.5627 237.719 13.4377C236.281 14.5002 235.094 15.4377 234.156 16.2502C233.094 17.1252 231.625 18.5002 229.75 20.3752C228.125 22.0002 225.969 24.1877 223.281 26.9377C220.594 29.6252 217.219 33.1252 213.156 37.4377C212.594 42.0002 212.219 45.6877 212.031 48.5002C211.906 51.3127 211.844 53.5314 211.844 55.1564C211.844 57.0314 211.969 58.4377 212.219 59.3752C212.531 60.1252 213.062 61.0002 213.812 62.0002C214.437 62.8752 215.312 63.9064 216.437 65.0939C217.625 66.2814 219.187 67.5939 221.125 69.0314C219.062 68.5314 217.125 68.1564 215.312 67.9064C213.562 67.6564 212 67.4689 210.625 67.3439C209 67.1564 207.531 67.0627 206.219 67.0627C204.844 67.0627 203.219 67.1252 201.344 67.2502C199.719 67.3752 197.781 67.5314 195.531 67.7189C193.281 67.9064 190.656 68.1877 187.656 68.5627C189.219 67.5002 190.5 66.4377 191.5 65.3752C192.5 64.3127 193.281 63.3439 193.844 62.4689C194.531 61.4689 195.031 60.5314 195.344 59.6564C195.594 58.6564 195.781 57.2189 195.906 55.3439C196.031 53.7189 196.031 51.5627 195.906 48.8752C195.844 46.1877 195.656 42.7814 195.344 38.6564C191.594 32.6564 188.531 27.9377 186.156 24.5002C183.781 21.0002 181.937 18.3439 180.625 16.5314C179.062 14.4689 177.937 13.0939 177.25 12.4064C176.625 11.9064 175.781 11.2814 174.719 10.5314C173.844 9.84394 172.719 9.03144 171.344 8.09394C169.906 7.09394 168.187 5.87519 166.187 4.43769Z" fill="#F7FAFF"/>
<path d="M228.906 4.15644C231.094 4.46894 233 4.71894 234.625 4.90644C236.25 5.09394 237.594 5.25019 238.656 5.37519C239.906 5.50019 240.969 5.59394 241.844 5.65644C242.844 5.78144 244.062 5.71894 245.5 5.46894C247 5.21894 248.594 4.96894 250.281 4.71894C251.969 4.40644 253.719 4.15644 255.531 3.96894C257.344 3.78144 259.094 3.78144 260.781 3.96894C261.906 4.09394 263.344 4.34394 265.094 4.71894C266.844 5.09394 268.688 5.68769 270.625 6.50019C272.625 7.31269 274.625 8.37519 276.625 9.68769C278.625 11.0002 280.438 12.6564 282.063 14.6564C283.688 16.6564 285.031 19.0314 286.094 21.7814C287.156 24.5314 287.75 27.7502 287.875 31.4377C288.063 36.9377 287.563 41.9377 286.375 46.4377C285.188 50.9377 283.344 54.7814 280.844 57.9689C278.406 61.1564 275.313 63.6564 271.563 65.4689C267.813 67.2814 263.438 68.2814 258.438 68.4689C254.625 68.7814 250.875 69.0627 247.187 69.3127C245.625 69.4377 243.969 69.5314 242.219 69.5939C240.531 69.6564 238.844 69.7189 237.156 69.7814C235.469 69.7814 233.844 69.7502 232.281 69.6877C230.719 69.6252 229.281 69.5314 227.969 69.4064C229.406 68.7189 230.562 68.0314 231.437 67.3439C232.375 66.6564 233.094 66.0627 233.594 65.5627C234.156 64.9377 234.562 64.3752 234.812 63.8752C234.937 63.1877 235.125 61.8439 235.375 59.8439C235.562 58.1564 235.812 55.7502 236.125 52.6252C236.437 49.5002 236.812 45.2502 237.25 39.8752L237.812 33.2189C238.125 29.0939 238.25 25.7189 238.187 23.0939C238.187 20.4689 238.125 18.4064 238 16.9064C237.812 15.1564 237.562 13.8752 237.25 13.0627C237 12.3752 236.531 11.5627 235.844 10.6252C235.219 9.87519 234.344 8.96894 233.219 7.90644C232.156 6.78144 230.719 5.53144 228.906 4.15644ZM248.687 38.6564C248.812 44.2189 249.094 48.5002 249.531 51.5002C250.031 54.4377 250.562 56.6252 251.125 58.0627C251.812 59.6877 252.562 60.6564 253.375 60.9689C254.562 60.9689 255.906 60.4689 257.406 59.4689C258.906 58.4064 260.375 56.8127 261.813 54.6877C263.313 52.5627 264.656 49.9064 265.844 46.7189C267.094 43.5314 268 39.8127 268.563 35.5627C269.125 31.3127 268.969 27.5627 268.094 24.3127C267.219 21.0627 266.063 18.3439 264.625 16.1564C263.188 13.9064 261.719 12.2189 260.219 11.0939C258.719 9.90644 257.594 9.31269 256.844 9.31269C255.969 9.31269 255.187 9.56269 254.5 10.0627C253.812 10.5002 252.844 11.5314 251.594 13.1564C250.969 14.0314 250.406 15.2814 249.906 16.9064C249.469 18.3439 249.094 20.2502 248.781 22.6252C248.469 25.0002 248.375 28.0627 248.5 31.8127L248.687 38.6564Z" fill="#F7FAFF"/>
<path d="M289.844 6.40644C291.969 6.65644 293.75 6.84394 295.188 6.96894C296.688 7.03144 297.906 7.12519 298.844 7.25019C299.969 7.37519 300.844 7.43769 301.469 7.43769C302.156 7.50019 303.188 7.46894 304.563 7.34394C305.75 7.21894 307.344 7.06269 309.344 6.87519C311.406 6.68769 314.031 6.40644 317.219 6.03144C315.781 7.28144 314.625 8.50019 313.75 9.68769C312.938 10.8127 312.313 11.8127 311.875 12.6877C311.313 13.7502 310.969 14.7502 310.844 15.6877C310.594 17.1877 310.375 19.2502 310.188 21.8752C310.063 24.4377 309.938 27.2502 309.813 30.3127C309.688 33.3752 309.625 36.5314 309.625 39.7814C309.625 43.0314 309.656 46.1252 309.719 49.0627C309.844 51.9377 310.031 54.5002 310.281 56.7502C310.594 59.0002 310.969 60.6252 311.406 61.6252C312.031 62.7502 312.688 63.8752 313.375 65.0002C314 65.9377 314.75 66.9064 315.625 67.9064C316.5 68.9064 317.5 69.7189 318.625 70.3439C314.938 70.1564 312 70.0627 309.813 70.0627H306.438C305.438 70.0627 304.156 70.1252 302.594 70.2502C301.281 70.3752 299.625 70.5002 297.625 70.6252C295.625 70.7502 293.219 70.9377 290.406 71.1877C291.844 69.6252 292.969 68.1252 293.781 66.6877C294.594 65.2502 295.25 64.0002 295.75 62.9377C296.313 61.6877 296.688 60.5002 296.875 59.3752C297.125 57.7502 297.313 55.7502 297.438 53.3752C297.625 50.9377 297.75 48.3439 297.813 45.5939C297.875 42.7814 297.875 39.9377 297.813 37.0627C297.813 34.1252 297.75 31.3127 297.625 28.6252C297.5 25.9377 297.313 23.5002 297.063 21.3127C296.875 19.1252 296.625 17.3752 296.313 16.0627C296.125 15.2502 295.75 14.3439 295.188 13.3439C294.688 12.4689 294 11.4689 293.125 10.3439C292.313 9.15644 291.219 7.84394 289.844 6.40644Z" fill="#F7FAFF"/>
<path d="M318.625 3.78144C320.625 3.84394 322.375 3.87519 323.875 3.87519C325.375 3.81269 326.594 3.78144 327.531 3.78144H330.25C330.938 3.71894 331.781 3.68769 332.781 3.68769C333.656 3.68769 334.719 3.68769 335.969 3.68769C337.219 3.68769 338.656 3.71894 340.281 3.78144C340.781 5.53144 341.344 7.25019 341.969 8.93769C342.656 10.5627 343.25 12.0314 343.75 13.3439C344.375 14.9064 345 16.3752 345.625 17.7502C346.25 19.1252 347 20.7814 347.875 22.7189C348.625 24.3439 349.531 26.3439 350.594 28.7189C351.656 31.0314 352.906 33.6877 354.344 36.6877C355.031 34.7502 355.656 32.9689 356.219 31.3439C356.844 29.7189 357.375 28.3127 357.813 27.1252C358.313 25.7502 358.719 24.5002 359.031 23.3752C359.344 22.2502 359.688 20.8752 360.063 19.2502C360.375 17.8752 360.719 16.2189 361.094 14.2814C361.531 12.3439 361.969 10.0939 362.406 7.53144C364.219 7.53144 365.844 7.53144 367.281 7.53144C368.719 7.53144 369.969 7.50019 371.031 7.43769C372.219 7.43769 373.281 7.40644 374.219 7.34394C375.219 7.34394 376.563 7.28144 378.25 7.15644C379.688 7.03144 381.594 6.93769 383.969 6.87519C386.406 6.75019 389.406 6.59394 392.969 6.40644C391.656 7.34394 390.594 8.28144 389.781 9.21894C389.031 10.0939 388.438 10.8752 388 11.5627C387.5 12.3752 387.188 13.1564 387.063 13.9064C386.938 14.5314 386.813 15.9689 386.688 18.2189C386.625 20.4689 386.531 23.1564 386.406 26.2814C386.344 29.3439 386.281 32.6252 386.219 36.1252C386.219 39.6252 386.25 42.9377 386.313 46.0627C386.375 49.1877 386.469 51.9064 386.594 54.2189C386.781 56.4689 387.031 57.9064 387.344 58.5314C387.781 59.2814 388.375 60.1564 389.125 61.1564C389.813 62.0314 390.688 63.0314 391.75 64.1564C392.875 65.2814 394.344 66.5314 396.156 67.9064C393.281 68.0314 390.875 68.1252 388.938 68.1877C387.063 68.2502 385.5 68.3127 384.25 68.3752C382.813 68.4377 381.656 68.4689 380.781 68.4689C379.844 68.4689 378.563 68.5002 376.938 68.5627C375.5 68.6252 373.594 68.7189 371.219 68.8439C368.844 68.9064 365.781 69.0314 362.031 69.2189C362.906 68.2189 363.719 67.2189 364.469 66.2189C365.219 65.2189 365.844 64.3127 366.344 63.5002C366.969 62.5627 367.5 61.6564 367.938 60.7814C368.375 59.5939 368.719 57.4377 368.969 54.3127C369.219 51.6252 369.406 47.7814 369.531 42.7814C369.656 37.7189 369.656 30.9377 369.531 22.4377C368.344 24.3752 367.281 26.3127 366.344 28.2502C365.469 30.1252 364.688 31.8439 364 33.4064C363.25 35.2189 362.563 36.9689 361.938 38.6564C361.313 40.4064 360.656 42.3439 359.969 44.4689C359.344 46.2814 358.594 48.4377 357.719 50.9377C356.906 53.4377 355.969 56.1877 354.906 59.1877L351.344 59.3752C350.844 56.8752 350.344 54.6252 349.844 52.6252C349.344 50.5627 348.844 48.8127 348.344 47.3752C347.781 45.6877 347.219 44.1877 346.656 42.8752C346.031 41.5627 345.344 40.0939 344.594 38.4689C343.906 37.0939 343.063 35.4689 342.063 33.5939C341.125 31.7189 340.031 29.6252 338.781 27.3127C338.156 33.6877 337.781 38.8752 337.656 42.8752C337.531 46.8127 337.531 49.8752 337.656 52.0627C337.781 54.6877 337.969 56.5939 338.219 57.7814C338.594 58.8439 339.188 60.0314 340 61.3439C340.688 62.4689 341.625 63.8127 342.813 65.3752C344.063 66.8752 345.656 68.5627 347.594 70.4377C346.219 70.4377 344.781 70.4377 343.281 70.4377C341.781 70.4377 340.406 70.4689 339.156 70.5314C337.656 70.5939 336.188 70.6252 334.75 70.6252C333.25 70.6877 331.5 70.7814 329.5 70.9064C327.75 71.0314 325.656 71.1564 323.219 71.2814C320.781 71.4064 317.969 71.6252 314.781 71.9377C316.156 71.0627 317.281 70.2189 318.156 69.4064C319.031 68.5314 319.719 67.7502 320.219 67.0627C320.844 66.2502 321.313 65.4377 321.625 64.6252C321.813 64.1252 321.969 63.0314 322.094 61.3439C322.281 59.6564 322.438 57.5939 322.563 55.1564C322.75 52.7189 322.875 50.0002 322.938 47.0002C323.063 44.0002 323.156 40.9689 323.219 37.9064C323.344 34.7814 323.438 31.7502 323.5 28.8127C323.563 25.8127 323.594 23.1252 323.594 20.7502C323.656 18.3127 323.688 16.2814 323.688 14.6564C323.688 13.0314 323.688 12.0002 323.688 11.5627C323.5 10.6252 323.219 9.68769 322.844 8.75019C322.531 7.93769 322.031 7.09394 321.344 6.21894C320.656 5.34394 319.75 4.53144 318.625 3.78144Z" fill="#F7FAFF"/>
<path d="M409.938 7.53144C413.063 7.71894 415.688 7.87519 417.813 8.00019C420 8.06269 421.813 8.12519 423.25 8.18769C424.875 8.25019 426.25 8.25019 427.375 8.18769C428.5 8.12519 430.031 7.96894 431.969 7.71894C433.594 7.53144 435.75 7.25019 438.438 6.87519C441.188 6.43769 444.594 5.87519 448.656 5.18769C447.219 6.62519 446.094 7.93769 445.281 9.12519C444.531 10.2502 443.938 11.2189 443.5 12.0314C443 13.0314 442.656 13.8752 442.469 14.5627C442.344 15.1877 442.469 16.7502 442.844 19.2502C443.219 21.7502 443.75 24.7189 444.438 28.1564C445.125 31.5314 445.875 35.1564 446.688 39.0314C447.5 42.8439 448.313 46.4377 449.125 49.8127C449.938 53.1252 450.656 55.9689 451.281 58.3439C451.969 60.6564 452.469 62.0314 452.781 62.4689C453.719 63.7814 454.313 64.6564 454.563 65.0939C454.813 65.4689 455.25 65.8127 455.875 66.1252C456.125 66.2502 456.531 66.4377 457.094 66.6877C457.594 66.9377 458.25 67.2502 459.063 67.6252C459.938 68.0002 461.031 68.4377 462.344 68.9377C459.906 69.0627 457.813 69.1564 456.063 69.2189C454.313 69.2189 452.875 69.2502 451.75 69.3127C450.438 69.3752 449.313 69.4377 448.375 69.5002C447.438 69.5002 446.313 69.5627 445 69.6877C443.875 69.8127 442.406 69.9377 440.594 70.0627C438.844 70.1877 436.781 70.3127 434.406 70.4377C435.656 69.5627 436.656 68.7814 437.406 68.0939C438.219 67.3439 438.844 66.7189 439.281 66.2189C439.781 65.5939 440.125 65.0314 440.313 64.5314C440.438 63.9689 440.531 63.1252 440.594 62.0002C440.656 61.0002 440.656 59.6877 440.594 58.0627C440.531 56.3752 440.375 54.1877 440.125 51.5002L415.469 54.0314C414.844 55.0939 414.375 56.0314 414.063 56.8439C413.75 57.5939 413.531 58.2502 413.406 58.8127C413.219 59.5002 413.156 60.0627 413.219 60.5002C413.344 61.0002 413.563 61.5939 413.875 62.2814C414.188 62.9064 414.625 63.6564 415.188 64.5314C415.813 65.3439 416.719 66.3127 417.906 67.4377C416.344 67.3752 414.75 67.3439 413.125 67.3439C411.5 67.3439 410 67.3752 408.625 67.4377C407 67.5002 405.406 67.5627 403.844 67.6252C402.281 67.6877 400.5 67.7814 398.5 67.9064C396.813 68.0314 394.844 68.1877 392.594 68.3752C390.281 68.5002 387.813 68.6877 385.188 68.9377C386.813 68.1877 388.188 67.4377 389.313 66.6877C390.438 65.8752 391.375 65.1252 392.125 64.4377C393 63.6877 393.75 62.9689 394.375 62.2814C394.813 61.6564 395.688 60.2189 397 57.9689C398.313 55.6564 399.781 52.9377 401.406 49.8127C403.094 46.6877 404.844 43.3439 406.656 39.7814C408.531 36.2189 410.219 32.8752 411.719 29.7502C413.219 26.5627 414.438 23.8127 415.375 21.5002C416.313 19.1877 416.781 17.6877 416.781 17.0002C416.656 16.1877 416.344 15.2814 415.844 14.2814C415.406 13.4064 414.719 12.4064 413.781 11.2814C412.906 10.1564 411.625 8.90644 409.938 7.53144ZM439 44.5627C438.625 42.3752 438.281 40.5002 437.969 38.9377C437.656 37.3127 437.406 35.9689 437.219 34.9064C436.969 33.6564 436.781 32.5627 436.656 31.6252C436.469 30.7502 436.25 29.6252 436 28.2502C435.75 27.0627 435.438 25.5939 435.063 23.8439C434.75 22.0314 434.344 19.8752 433.844 17.3752C430.281 24.5002 427.5 30.0314 425.5 33.9689C423.563 37.8439 422.156 40.6877 421.281 42.5002C420.219 44.6252 419.625 45.8752 419.5 46.2502L439 44.5627Z" fill="#F7FAFF"/>
<path d="M454.094 2.56269C456.094 2.87519 457.906 3.15644 459.531 3.40644C461.156 3.59394 462.563 3.75019 463.75 3.87519C465.125 4.06269 466.344 4.21894 467.406 4.34394C468.719 4.53144 470.688 4.31269 473.313 3.68769C475.938 3.00019 478.813 2.37519 481.938 1.81269C485.125 1.18769 488.375 0.843941 491.688 0.781441C495 0.656441 498.031 1.25019 500.781 2.56269C503.531 3.87519 505.781 5.18769 507.531 6.50019C509.281 7.81269 510.656 9.21894 511.656 10.7189C512.719 12.1564 513.469 13.6877 513.906 15.3127C514.344 16.9377 514.594 18.7189 514.656 20.6564C514.594 23.5314 513.906 26.3127 512.594 29.0002C512.031 30.1252 511.281 31.3127 510.344 32.5627C509.469 33.7502 508.375 34.9064 507.063 36.0314C505.75 37.1564 504.188 38.2189 502.375 39.2189C500.625 40.2189 498.563 41.0939 496.188 41.8439C498.5 42.5314 500.406 43.3439 501.906 44.2814C503.469 45.2189 504.719 46.0939 505.656 46.9064C506.781 47.9064 507.625 48.8752 508.188 49.8127C508.875 51.1252 509.344 52.2502 509.594 53.1877C509.844 54.1252 510 55.0314 510.063 55.9064C510.188 56.7189 510.344 57.5627 510.531 58.4377C510.719 59.3127 511.125 60.3127 511.75 61.4377C512.25 62.3127 512.844 63.2189 513.531 64.1564C514.156 64.9689 514.875 65.8439 515.688 66.7814C516.563 67.7189 517.625 68.6252 518.875 69.5002C517.125 69.5627 515.5 69.5939 514 69.5939C512.563 69.5939 511.313 69.5939 510.25 69.5939C509 69.5939 507.813 69.5627 506.688 69.5002C505.563 69.4377 504.156 69.4064 502.469 69.4064C501.031 69.4064 499.188 69.4064 496.938 69.4064C494.75 69.4064 492.094 69.4377 488.969 69.5002C490.344 68.4377 491.469 67.3752 492.344 66.3127C493.219 65.2502 493.906 64.2814 494.406 63.4064C494.969 62.4064 495.375 61.4377 495.625 60.5002C495.938 58.8127 495.969 57.0627 495.719 55.2502C495.531 53.6877 495.031 51.9689 494.219 50.0939C493.406 48.1564 492.094 46.2189 490.281 44.2814C488.469 44.5939 486.938 44.8439 485.688 45.0314C484.5 45.1564 483.469 45.2814 482.594 45.4064C481.594 45.5314 480.781 45.6252 480.156 45.6877C479.594 45.7502 478.969 45.8127 478.281 45.8752C477.719 45.9377 477.094 46.0314 476.406 46.1564C475.781 46.2189 475.188 46.3127 474.625 46.4377C474.5 49.1252 474.5 51.4689 474.625 53.4689C474.75 55.4064 474.906 57.0314 475.094 58.3439C475.344 59.9064 475.625 61.2502 475.938 62.3752C476.25 63.5002 476.688 64.5939 477.25 65.6564C477.688 66.5314 478.25 67.4689 478.938 68.4689C479.625 69.4064 480.406 70.1877 481.281 70.8127C479.656 70.8127 478.094 70.8127 476.594 70.8127C475.156 70.8127 473.844 70.7814 472.656 70.7189C471.281 70.7189 469.969 70.6877 468.719 70.6252C467.469 70.5627 466.063 70.5314 464.5 70.5314C463.188 70.5314 461.625 70.5314 459.813 70.5314C458.063 70.5314 456.156 70.5627 454.094 70.6252C455.719 68.9377 457 67.5002 457.938 66.3127C458.875 65.1252 459.594 64.1252 460.094 63.3127C460.656 62.4377 461 61.6877 461.125 61.0627C461.25 60.0627 461.344 58.2814 461.406 55.7189C461.531 53.0939 461.625 50.0939 461.688 46.7189C461.75 43.3439 461.781 39.8127 461.781 36.1252C461.781 32.4377 461.75 29.0002 461.688 25.8127C461.625 22.5627 461.563 19.7814 461.5 17.4689C461.438 15.1564 461.375 13.6877 461.313 13.0627C461.125 11.9377 460.719 10.8127 460.094 9.68769C459.594 8.68769 458.875 7.56269 457.938 6.31269C457 5.06269 455.719 3.81269 454.094 2.56269ZM489.531 35.5627C490.156 35.1877 490.688 34.8127 491.125 34.4377C491.563 34.0627 491.938 33.4689 492.25 32.6564C492.563 31.7814 492.813 30.5627 493 29.0002C493.25 27.4377 493.531 25.3127 493.844 22.6252C494.094 19.9377 493.906 17.7189 493.281 15.9689C492.719 14.2189 491.938 12.8439 490.938 11.8439C490 10.7814 488.938 10.0627 487.75 9.68769C486.625 9.25019 485.625 9.03144 484.75 9.03144C483 9.03144 481.281 9.56269 479.594 10.6252C477.906 11.6877 476.625 13.1252 475.75 14.9377C475.438 15.7502 475.156 17.0939 474.906 18.9689C474.719 20.5939 474.594 22.8439 474.531 25.7189C474.469 28.5939 474.563 32.3752 474.813 37.0627C477.188 37.4377 479.281 37.5939 481.094 37.5314C482.906 37.4064 484.438 37.1877 485.688 36.8752C487.188 36.5627 488.469 36.1252 489.531 35.5627Z" fill="#F7FAFF"/>
</svg>
